<svg fill="none" height="1024" viewBox="0 0 737 1024" width="737" xmlns="http://www.w3.org/2000/svg" xmlns:xlink="http://www.w3.org/1999/xlink"><filter id="a" color-interpolation-filters="sRGB" filterUnits="userSpaceOnUse" height="20.7458" width="20.7458" x="31.7711" y="289.354"><feFlood flood-opacity="0" result="BackgroundImageFix"/><feColorMatrix in="SourceAlpha" result="hardAlpha" type="matrix" values="0 0 0 0 0 0 0 0 0 0 0 0 0 0 0 0 0 0 127 0"/><feOffset dy=".591232"/><feGaussianBlur stdDeviation=".591232"/><feColorMatrix type="matrix" values="0 0 0 0 0.0627451 0 0 0 0 0.0941176 0 0 0 0 0.156863 0 0 0 0.05 0"/><feBlend in2="BackgroundImageFix" mode="normal" result="effect1_dropShadow_311_1922"/><feBlend in="SourceGraphic" in2="effect1_dropShadow_311_1922" mode="normal" result="shape"/></filter><filter id="b" color-interpolation-filters="sRGB" filterUnits="userSpaceOnUse" height="20.7458" width="20.7458" x="168.71" y="187.339"><feFlood flood-opacity="0" result="BackgroundImageFix"/><feColorMatrix in="SourceAlpha" result="hardAlpha" type="matrix" values="0 0 0 0 0 0 0 0 0 0 0 0 0 0 0 0 0 0 127 0"/><feOffset dy=".591232"/><feGaussianBlur stdDeviation=".591232"/><feColorMatrix type="matrix" values="0 0 0 0 0.0627451 0 0 0 0 0.0941176 0 0 0 0 0.156863 0 0 0 0.05 0"/><feBlend in2="BackgroundImageFix" mode="normal" result="effect1_dropShadow_311_1922"/><feBlend in="SourceGraphic" in2="effect1_dropShadow_311_1922" mode="normal" result="shape"/></filter><filter id="c" color-interpolation-filters="sRGB" filterUnits="userSpaceOnUse" height="20.7458" width="20.7458" x="716.466" y="187.339"><feFlood flood-opacity="0" result="BackgroundImageFix"/><feColorMatrix in="SourceAlpha" result="hardAlpha" type="matrix" values="0 0 0 0 0 0 0 0 0 0 0 0 0 0 0 0 0 0 127 0"/><feOffset dy=".591232"/><feGaussianBlur stdDeviation=".591232"/><feColorMatrix type="matrix" values="0 0 0 0 0.0627451 0 0 0 0 0.0941176 0 0 0 0 0.156863 0 0 0 0.05 0"/><feBlend in2="BackgroundImageFix" mode="normal" result="effect1_dropShadow_311_1922"/><feBlend in="SourceGraphic" in2="effect1_dropShadow_311_1922" mode="normal" result="shape"/></filter><filter id="d" color-interpolation-filters="sRGB" filterUnits="userSpaceOnUse" height="20.7458" width="20.7458" x="442.869" y="187.035"><feFlood flood-opacity="0" result="BackgroundImageFix"/><feColorMatrix in="SourceAlpha" result="hardAlpha" type="matrix" values="0 0 0 0 0 0 0 0 0 0 0 0 0 0 0 0 0 0 127 0"/><feOffset dy=".591232"/><feGaussianBlur stdDeviation=".591232"/><feColorMatrix type="matrix" values="0 0 0 0 0.0627451 0 0 0 0 0.0941176 0 0 0 0 0.156863 0 0 0 0.05 0"/><feBlend in2="BackgroundImageFix" mode="normal" result="effect1_dropShadow_311_1922"/><feBlend in="SourceGraphic" in2="effect1_dropShadow_311_1922" mode="normal" result="shape"/></filter><filter id="e" color-interpolation-filters="sRGB" filterUnits="userSpaceOnUse" height="20.7458" width="20.7458" x="716.466" y="289.354"><feFlood flood-opacity="0" result="BackgroundImageFix"/><feColorMatrix in="SourceAlpha" result="hardAlpha" type="matrix" values="0 0 0 0 0 0 0 0 0 0 0 0 0 0 0 0 0 0 127 0"/><feOffset dy=".591232"/><feGaussianBlur stdDeviation=".591232"/><feColorMatrix type="matrix" values="0 0 0 0 0.0627451 0 0 0 0 0.0941176 0 0 0 0 0.156863 0 0 0 0.05 0"/><feBlend in2="BackgroundImageFix" mode="normal" result="effect1_dropShadow_311_1922"/><feBlend in="SourceGraphic" in2="effect1_dropShadow_311_1922" mode="normal" result="shape"/></filter><linearGradient id="f" gradientUnits="userSpaceOnUse" x1="-203.241" x2="2054.99" y1="-348.879" y2="1505.1"><stop offset=".129487" stop-color="#f43f5e" stop-opacity=".1"/><stop offset=".562368" stop-color="#38bdf8" stop-opacity=".7"/></linearGradient><clipPath id="g"><path d="m0 0h738v1024h-738z"/></clipPath><clipPath id="h"><path d="m36.6299 293.621h11.0286v11.0286h-11.0286z"/></clipPath><clipPath id="i"><path d="m173.569 191.606h11.0286v11.0286h-11.0286z"/></clipPath><clipPath id="j"><path d="m721.325 191.606h11.0286v11.0286h-11.0286z"/></clipPath><clipPath id="k"><path d="m447.728 191.302h11.0286v11.0286h-11.0286z"/></clipPath><clipPath id="l"><path d="m721.325 293.621h11.0286v11.0286h-11.0286z"/></clipPath><g clip-path="url(#g)"><path d="m-2.42627-38h963.90927v1243.52h-963.90927z" fill="url(#f)"/><g stroke="#f1f4f9" stroke-width=".591232"><path d="m43.2443-6.11475.0001 1322.00475" opacity=".5"/><path d="m179.369-14.6992v1330.5892" opacity=".5"/><path d="m-206 93.5369 1323.84-.0001" opacity=".5"/><path d="m-206 196.55h1323.84" opacity=".5"/><path d="m-206 298.95h1323.84" opacity=".5"/><path d="m-206 398.897h1323.84" opacity=".5"/><path d="m-204.161 498.231h1322.621" opacity=".5"/><path d="m316.106-33.0947v1348.9847" opacity=".5"/><path d="m453.458 92.606v1223.284" opacity=".5"/><path d="m590.195-9.79395v1325.68395" opacity=".5"/><path d="m726.933-9.79395v1325.68395" opacity=".5"/></g><circle cx="42.8626" cy="92.6673" fill="#f2e8fc" r="11.0286"/><circle cx="42.863" cy="92.6672" fill="#fff" r="1.83811"/><circle cx="42.1444" cy="197.12" fill="#f1e7fc" r="11.0286"/><circle cx="42.1447" cy="197.12" fill="#fff" r="1.83811"/><circle cx="179.656" cy="92.6673" fill="#efe4fd" r="11.0286"/><circle cx="179.655" cy="92.6672" fill="#fff" r="1.83811"/><circle cx="316.45" cy="92.6673" fill="#ece4fd" r="11.0286"/><circle cx="316.449" cy="92.6672" fill="#fff" r="1.83811"/><circle cx="589.899" cy="93.2679" fill="#e3e5fc" r="11.0286"/><circle cx="589.899" cy="93.2678" fill="#fff" r="1.83811"/><circle cx="726.839" cy="93.2679" fill="#e1e8fd" r="11.0286"/><circle cx="726.839" cy="93.2678" fill="#fff" r="1.83811"/><circle cx="42.1444" cy="299.136" fill="#f2e8fc" r="11.0286"/><g filter="url(#a)"><circle cx="42.1441" cy="299.135" fill="#fff" r="9.19053"/><circle cx="42.1441" cy="299.135" r="9.04272" stroke="#e0e6ec" stroke-width=".295616"/></g><g clip-path="url(#h)" opacity=".55"><path d="m43.9821 294.54v1.838m-5.9738 1.838h8.2715m-5.9739-3.676v1.838m4.1358 3.676h-2.7572m.9191 1.838h-2.7572m0-1.838h.0046m4.5907 1.838h.0046m-5.5189-6.433h6.4333c.5076 0 .9191.412.9191.919v6.434c0 .507-.4115.919-.9191.919h-6.4333c-.5076 0-.9191-.412-.9191-.919v-6.434c0-.507.4115-.919.9191-.919z" stroke="#94a3b8" stroke-linecap="round" stroke-linejoin="round" stroke-width=".591232"/></g><circle cx="179.083" cy="197.12" fill="#f0e3fd" r="11.0286"/><g filter="url(#b)"><circle cx="179.083" cy="197.121" fill="#fff" r="9.19053"/><circle cx="179.083" cy="197.121" r="9.04272" stroke="#e0e6ec" stroke-width=".295616"/></g><g clip-path="url(#i)" opacity=".2"><path d="m181.031 195.172-.829 2.486c-.045.136-.121.259-.222.36-.1.1-.223.176-.359.222l-2.486.829.829-2.487c.045-.135.121-.258.222-.359s.224-.177.359-.222z" fill="#bac5cf"/><path d="m179.083 201.715c2.538 0 4.595-2.057 4.595-4.595s-2.057-4.595-4.595-4.595-4.595 2.057-4.595 4.595 2.057 4.595 4.595 4.595z" fill="#bac5cf"/><g stroke="#020617" stroke-linecap="round" stroke-linejoin="round" stroke-width=".591232"><path d="m181.031 195.172-.829 2.486c-.045.136-.121.259-.222.36-.1.1-.223.176-.359.222l-2.486.829.829-2.487c.045-.135.121-.258.222-.359s.224-.177.359-.222z"/><path d="m179.083 201.715c2.538 0 4.595-2.057 4.595-4.595s-2.057-4.595-4.595-4.595-4.595 2.057-4.595 4.595 2.057 4.595 4.595 4.595z"/></g></g><circle cx="726.839" cy="197.12" fill="#e0eafd" r="11.0286"/><g filter="url(#c)"><circle cx="726.839" cy="197.121" fill="#fff" r="9.19053"/><circle cx="726.839" cy="197.121" r="9.04272" stroke="#e0e6ec" stroke-width=".295616"/></g><g clip-path="url(#j)" fill="#bac5cf"><path d="m730.976 195.512c-.667 0-1.039.662-.887 1.153l-1.632 1.636c-.137-.041-.34-.041-.477 0l-1.172-1.171c.156-.492-.216-1.158-.887-1.158-.666 0-1.043.661-.887 1.158l-2.095 2.09c-.492-.151-1.154.221-1.154.887 0 .506.414.919.919.919.667 0 1.039-.661.887-1.153l2.091-2.096c.138.042.34.042.478 0l1.172 1.172c-.157.492.216 1.158.887 1.158.666 0 1.043-.661.886-1.158l1.636-1.631c.492.152 1.154-.221 1.154-.887 0-.505-.414-.919-.919-.919z"/><path d="m728.219 195.972.431-.952.947-.427-.947-.427-.431-.952-.423.952-.956.427.956.427z"/><path d="m722.934 196.891.23-.919.919-.23-.919-.23-.23-.919-.23.919-.919.23.919.23z"/></g><circle cx="453.242" cy="196.817" fill="#e0eafd" r="11.0286"/><g filter="url(#d)"><circle cx="453.242" cy="196.817" fill="#fff" r="9.19053"/><circle cx="453.242" cy="196.817" r="9.04272" stroke="#e0e6ec" stroke-width=".295616"/></g><g clip-path="url(#k)" fill="#bac5cf"><path d="m457.378 195.208c-.666 0-1.039.662-.887 1.154l-1.631 1.636c-.138-.042-.34-.042-.478 0l-1.172-1.172c.156-.492-.216-1.158-.887-1.158-.666 0-1.043.662-.887 1.158l-2.095 2.091c-.492-.152-1.153.22-1.153.887 0 .505.413.919.919.919.666 0 1.038-.662.886-1.154l2.091-2.095c.138.041.34.041.478 0l1.172 1.172c-.156.491.216 1.158.887 1.158.666 0 1.043-.662.887-1.158l1.636-1.632c.491.152 1.153-.22 1.153-.887 0-.505-.413-.919-.919-.919z"/><path d="m454.621 195.668.432-.951.946-.428-.946-.427-.432-.951-.423.951-.956.427.956.428z"/><path d="m449.336 196.587.23-.919.919-.23-.919-.23-.23-.919-.229.919-.919.23.919.23z"/></g><circle cx="726.839" cy="299.136" fill="#deeffe" r="11.0286"/><g filter="url(#e)"><circle cx="726.839" cy="299.135" fill="#fff" r="9.19053"/><circle cx="726.839" cy="299.135" r="9.04272" stroke="#e0e6ec" stroke-width=".295616"/></g><g clip-path="url(#l)" opacity=".23"><g fill="#bac5cf"><path d="m726.839 300.973v2.298z"/><path d="m728.678 300.054v3.217z"/><path d="m730.516 298.216v5.055z"/><path d="m731.435 295-3.973 3.973c-.022.021-.047.038-.075.05-.028.011-.058.017-.088.017s-.06-.006-.088-.017c-.028-.012-.053-.029-.075-.05l-1.513-1.513c-.043-.043-.101-.067-.162-.067s-.119.024-.162.067l-3.055 3.054"/><path d="m723.163 301.892v1.379z"/><path d="m725.001 300.054v3.217z"/></g><path d="m726.839 300.973v2.298m1.839-3.217v3.217m1.838-5.055v5.055m.919-8.271-3.973 3.973c-.022.021-.047.038-.075.05-.028.011-.058.017-.088.017s-.06-.006-.088-.017c-.028-.012-.053-.029-.075-.05l-1.513-1.513c-.043-.043-.101-.067-.162-.067s-.119.024-.162.067l-3.055 3.054m.919 1.378v1.379m1.838-3.217v3.217" stroke="#020617" stroke-linecap="round" stroke-linejoin="round" stroke-width=".591232"/></g><path clip-rule="evenodd" d="m248.361 172.932 25.754-49.054h-25.752z" fill="#fff" fill-rule="evenodd" opacity=".35"/><path clip-rule="evenodd" d="m247.748 172.932 12.264-24.528-36.79-24.526z" fill="#fff" fill-rule="evenodd" opacity=".35"/></g></svg>