<svg fill="none" height="1024" viewBox="0 0 1440 1024" width="1440" xmlns="http://www.w3.org/2000/svg" xmlns:xlink="http://www.w3.org/1999/xlink"><filter id="a" color-interpolation-filters="sRGB" filterUnits="userSpaceOnUse" height="32.342" width="32.3418" x="28.517" y="458.241"><feFlood flood-opacity="0" result="BackgroundImageFix"/><feColorMatrix in="SourceAlpha" result="hardAlpha" type="matrix" values="0 0 0 0 0 0 0 0 0 0 0 0 0 0 0 0 0 0 127 0"/><feOffset dy=".591232"/><feGaussianBlur stdDeviation=".591232"/><feColorMatrix type="matrix" values="0 0 0 0 0.0627451 0 0 0 0 0.0941176 0 0 0 0 0.156863 0 0 0 0.05 0"/><feBlend in2="BackgroundImageFix" mode="normal" result="effect1_dropShadow_189_3641"/><feBlend in="SourceGraphic" in2="effect1_dropShadow_189_3641" mode="normal" result="shape"/></filter><filter id="b" color-interpolation-filters="sRGB" filterUnits="userSpaceOnUse" height="32.342" width="32.3418" x="251.845" y="291.869"><feFlood flood-opacity="0" result="BackgroundImageFix"/><feColorMatrix in="SourceAlpha" result="hardAlpha" type="matrix" values="0 0 0 0 0 0 0 0 0 0 0 0 0 0 0 0 0 0 127 0"/><feOffset dy=".591232"/><feGaussianBlur stdDeviation=".591232"/><feColorMatrix type="matrix" values="0 0 0 0 0.0627451 0 0 0 0 0.0941176 0 0 0 0 0.156863 0 0 0 0.05 0"/><feBlend in2="BackgroundImageFix" mode="normal" result="effect1_dropShadow_189_3641"/><feBlend in="SourceGraphic" in2="effect1_dropShadow_189_3641" mode="normal" result="shape"/></filter><filter id="c" color-interpolation-filters="sRGB" filterUnits="userSpaceOnUse" height="32.342" width="32.3419" x="1145.16" y="291.869"><feFlood flood-opacity="0" result="BackgroundImageFix"/><feColorMatrix in="SourceAlpha" result="hardAlpha" type="matrix" values="0 0 0 0 0 0 0 0 0 0 0 0 0 0 0 0 0 0 127 0"/><feOffset dy=".591232"/><feGaussianBlur stdDeviation=".591232"/><feColorMatrix type="matrix" values="0 0 0 0 0.0627451 0 0 0 0 0.0941176 0 0 0 0 0.156863 0 0 0 0.05 0"/><feBlend in2="BackgroundImageFix" mode="normal" result="effect1_dropShadow_189_3641"/><feBlend in="SourceGraphic" in2="effect1_dropShadow_189_3641" mode="normal" result="shape"/></filter><filter id="d" color-interpolation-filters="sRGB" filterUnits="userSpaceOnUse" height="32.342" width="32.3418" x="698.96" y="291.373"><feFlood flood-opacity="0" result="BackgroundImageFix"/><feColorMatrix in="SourceAlpha" result="hardAlpha" type="matrix" values="0 0 0 0 0 0 0 0 0 0 0 0 0 0 0 0 0 0 127 0"/><feOffset dy=".591232"/><feGaussianBlur stdDeviation=".591232"/><feColorMatrix type="matrix" values="0 0 0 0 0.0627451 0 0 0 0 0.0941176 0 0 0 0 0.156863 0 0 0 0.05 0"/><feBlend in2="BackgroundImageFix" mode="normal" result="effect1_dropShadow_189_3641"/><feBlend in="SourceGraphic" in2="effect1_dropShadow_189_3641" mode="normal" result="shape"/></filter><filter id="e" color-interpolation-filters="sRGB" filterUnits="userSpaceOnUse" height="32.342" width="32.3419" x="1145.16" y="458.241"><feFlood flood-opacity="0" result="BackgroundImageFix"/><feColorMatrix in="SourceAlpha" result="hardAlpha" type="matrix" values="0 0 0 0 0 0 0 0 0 0 0 0 0 0 0 0 0 0 127 0"/><feOffset dy=".591232"/><feGaussianBlur stdDeviation=".591232"/><feColorMatrix type="matrix" values="0 0 0 0 0.0627451 0 0 0 0 0.0941176 0 0 0 0 0.156863 0 0 0 0.05 0"/><feBlend in2="BackgroundImageFix" mode="normal" result="effect1_dropShadow_189_3641"/><feBlend in="SourceGraphic" in2="effect1_dropShadow_189_3641" mode="normal" result="shape"/></filter><filter id="f" color-interpolation-filters="sRGB" filterUnits="userSpaceOnUse" height="32.342" width="32.3419" x="1368.48" y="458.241"><feFlood flood-opacity="0" result="BackgroundImageFix"/><feColorMatrix in="SourceAlpha" result="hardAlpha" type="matrix" values="0 0 0 0 0 0 0 0 0 0 0 0 0 0 0 0 0 0 127 0"/><feOffset dy=".591232"/><feGaussianBlur stdDeviation=".591232"/><feColorMatrix type="matrix" values="0 0 0 0 0.0627451 0 0 0 0 0.0941176 0 0 0 0 0.156863 0 0 0 0.05 0"/><feBlend in2="BackgroundImageFix" mode="normal" result="effect1_dropShadow_189_3641"/><feBlend in="SourceGraphic" in2="effect1_dropShadow_189_3641" mode="normal" result="shape"/></filter><linearGradient id="g" gradientUnits="userSpaceOnUse" x1="-355.5" x2="3327.36" y1="-583" y2="2440.58"><stop offset=".129487" stop-color="#f43f5e" stop-opacity=".1"/><stop offset=".562368" stop-color="#38bdf8" stop-opacity=".7"/></linearGradient><clipPath id="h"><path d="m0 0h1440v1024h-1440z"/></clipPath><clipPath id="i"><path d="m706.138 297.96h17.9861v17.9861h-17.9861z"/></clipPath><g clip-path="url(#h)"><path d="m0 0h1440v1024h-1440z" fill="#fff"/><path d="m-28-76h1572v2028h-1572z" fill="url(#g)"/><g stroke="#f1f4f9" stroke-width=".591232"><path d="m46.2956-24 .0001 2156" opacity=".5"/><path d="m268.296-38v2170" opacity=".5"/><path d="m-360 138.704h2159" opacity=".5"/><path d="m-360 306.704h2159" opacity=".5"/><path d="m-360 473.704h2159" opacity=".5"/><path d="m-360 636.704h2159" opacity=".5"/><path d="m-357 798.704h2157" opacity=".5"/><path d="m491.296-68v2200" opacity=".5"/><path d="m715.296 137v1995" opacity=".5"/><path d="m938.296-30v2162" opacity=".5"/><path d="m1161.3-30v2162" opacity=".5"/><path d="m1383.3-30v2162" opacity=".5"/></g><circle cx="45.8597" cy="137.1" fill="#f2e8fc" r="17.9861"/><circle cx="45.8598" cy="137.1" fill="#fff" r="2.99769"/><circle cx="44.6884" cy="307.449" fill="#f1e7fc" r="17.9861"/><circle cx="44.6885" cy="307.448" fill="#fff" r="2.99769"/><circle cx="268.95" cy="137.1" fill="#efe4fd" r="17.9861"/><circle cx="268.951" cy="137.1" fill="#fff" r="2.99769"/><circle cx="492.041" cy="137.1" fill="#ece4fd" r="17.9861"/><circle cx="492.041" cy="137.1" fill="#fff" r="2.99769"/><circle cx="937.999" cy="138.079" fill="#e3e5fc" r="17.9861"/><circle cx="938" cy="138.079" fill="#fff" r="2.99769"/><circle cx="1161.33" cy="138.079" fill="#e1e8fd" r="17.9861"/><circle cx="1161.33" cy="138.079" fill="#fff" r="2.99769"/><circle cx="1384.66" cy="138.079" fill="#e0eafd" r="17.9861"/><circle cx="1384.66" cy="138.079" fill="#fff" r="2.99769"/><circle cx="44.6884" cy="473.821" fill="#f2e8fc" r="17.9861"/><g filter="url(#a)"><circle cx="44.6879" cy="473.82" fill="#fff" r="14.9885"/><circle cx="44.6879" cy="473.82" r="14.8406" stroke="#e0e6ec" stroke-width=".295616"/></g><path d="m47.6858 466.327v2.997m-9.7425 2.998h13.4896m-9.7425-5.995v2.997m6.7448 5.996h-4.4966m1.4989 2.997h-4.4965m0-2.997h.0075m7.4867 2.997h.0075m-9.0006-10.491h10.4919c.8278 0 1.4989.671 1.4989 1.498v10.492c0 .828-.6711 1.499-1.4989 1.499h-10.4919c-.8278 0-1.4988-.671-1.4988-1.499v-10.492c0-.827.671-1.498 1.4988-1.498z" opacity=".55" stroke="#94a3b8" stroke-linecap="round" stroke-linejoin="round" stroke-width=".591232"/><circle cx="268.016" cy="307.449" fill="#f0e3fd" r="17.9861"/><g filter="url(#b)"><circle cx="268.016" cy="307.448" fill="#fff" r="14.9885"/><circle cx="268.016" cy="307.448" r="14.8406" stroke="#e0e6ec" stroke-width=".295616"/></g><g opacity=".2"><path d="m271.194 304.271-1.352 4.055c-.074.221-.198.422-.362.586-.165.165-.365.289-.586.362l-4.055 1.352 1.352-4.055c.073-.221.197-.421.362-.586.164-.164.365-.288.586-.362z" fill="#bac5cf"/><path d="m268.016 314.943c4.139 0 7.494-3.355 7.494-7.494s-3.355-7.494-7.494-7.494-7.494 3.355-7.494 7.494 3.355 7.494 7.494 7.494z" fill="#bac5cf"/><g stroke="#020617" stroke-linecap="round" stroke-linejoin="round" stroke-width=".591232"><path d="m271.194 304.271-1.352 4.055c-.074.221-.198.422-.362.586-.165.165-.365.289-.586.362l-4.055 1.352 1.352-4.055c.073-.221.197-.421.362-.586.164-.164.365-.288.586-.362z"/><path d="m268.016 314.943c4.139 0 7.494-3.355 7.494-7.494s-3.355-7.494-7.494-7.494-7.494 3.355-7.494 7.494 3.355 7.494 7.494 7.494z"/></g></g><circle cx="1161.33" cy="307.449" fill="#e0eafd" r="17.9861"/><g filter="url(#c)"><circle cx="1161.33" cy="307.448" fill="#fff" r="14.9885"/><circle cx="1161.33" cy="307.448" r="14.8406" stroke="#e0e6ec" stroke-width=".295616"/></g><path d="m1168.07 304.826c-1.08 0-1.69 1.079-1.44 1.881l-2.66 2.668c-.23-.068-.56-.068-.78 0l-1.91-1.911c.25-.802-.36-1.889-1.45-1.889s-1.7 1.079-1.45 1.889l-3.41 3.41c-.81-.248-1.89.359-1.89 1.446 0 .824.68 1.499 1.5 1.499 1.09 0 1.7-1.079 1.45-1.881l3.41-3.418c.22.068.55.068.78 0l1.91 1.911c-.26.802.35 1.889 1.45 1.889 1.08 0 1.7-1.079 1.44-1.889l2.67-2.66c.8.247 1.88-.36 1.88-1.446 0-.825-.67-1.499-1.5-1.499z" fill="#bac5cf"/><path d="m1163.58 305.575.7-1.551 1.54-.697-1.54-.697-.7-1.551-.69 1.551-1.56.697 1.56.697z" fill="#bac5cf"/><path d="m1154.96 307.074.37-1.499 1.5-.375-1.5-.374-.37-1.499-.38 1.499-1.5.374 1.5.375z" fill="#bac5cf"/><circle cx="715.132" cy="306.953" fill="#e0eafd" r="17.9861"/><g filter="url(#d)"><circle cx="715.131" cy="306.953" fill="#fff" r="14.9885"/><circle cx="715.131" cy="306.953" r="14.8406" stroke="#e0e6ec" stroke-width=".295616"/></g><g clip-path="url(#i)" fill="#bac5cf"><path d="m721.876 304.33c-1.087 0-1.694 1.079-1.446 1.881l-2.661 2.668c-.225-.067-.554-.067-.779 0l-1.911-1.911c.255-.802-.352-1.888-1.447-1.888-1.086 0-1.701 1.079-1.446 1.888l-3.417 3.41c-.802-.247-1.881.36-1.881 1.446 0 .825.674 1.499 1.498 1.499 1.087 0 1.694-1.079 1.447-1.881l3.41-3.417c.224.067.554.067.779 0l1.911 1.911c-.255.802.352 1.888 1.446 1.888 1.087 0 1.702-1.079 1.447-1.888l2.668-2.661c.802.248 1.881-.359 1.881-1.446 0-.824-.675-1.499-1.499-1.499z"/><path d="m717.379 305.08.705-1.552 1.544-.697-1.544-.697-.705-1.551-.689 1.551-1.559.697 1.559.697z"/><path d="m708.761 306.578.375-1.498 1.499-.375-1.499-.375-.375-1.499-.375 1.499-1.498.375 1.498.375z"/></g><circle cx="1161.33" cy="473.821" fill="#deeffe" r="17.9861"/><g filter="url(#e)"><circle cx="1161.33" cy="473.82" fill="#fff" r="14.9885"/><circle cx="1161.33" cy="473.82" r="14.8406" stroke="#e0e6ec" stroke-width=".295616"/></g><g opacity=".23"><g fill="#bac5cf"><path d="m1161.33 476.819v3.747z"/><path d="m1164.33 475.32v5.246z"/><path d="m1167.32 472.322v8.244z"/><path d="m1168.82 467.076-6.48 6.48c-.03.035-.07.062-.12.081-.04.019-.09.029-.14.029s-.1-.01-.15-.029c-.04-.019-.08-.046-.12-.081l-2.47-2.467c-.07-.071-.16-.11-.26-.11s-.19.039-.26.11l-4.99 4.98"/><path d="m1155.33 478.318v2.248z"/><path d="m1158.33 475.32v5.246z"/></g><path d="m1161.33 476.819v3.747m3-5.246v5.246m2.99-8.244v8.244m1.5-13.49-6.48 6.48c-.03.035-.07.062-.12.081-.04.019-.09.029-.14.029s-.1-.01-.15-.029c-.04-.019-.08-.046-.12-.081l-2.47-2.467c-.07-.071-.16-.11-.26-.11s-.19.039-.26.11l-4.99 4.98m1.5 2.249v2.248m3-5.246v5.246" stroke="#020617" stroke-linecap="round" stroke-linejoin="round" stroke-width=".591232"/></g><circle cx="1384.66" cy="473.821" fill="#dbf5ff" r="17.9861"/><g filter="url(#f)"><circle cx="1384.66" cy="473.82" fill="#fff" r="14.9885"/><circle cx="1384.66" cy="473.82" r="14.8406" stroke="#e0e6ec" stroke-width=".295616"/></g><path d="m1382.41 479.067c0 1.242-1.01 2.248-2.25 2.248s-2.25-1.006-2.25-2.248 1.01-2.248 2.25-2.248 2.25 1.006 2.25 2.248zm0 0h6.37c.69 0 1.36-.277 1.85-.768.49-.492.77-1.159.77-1.855s-.28-1.363-.77-1.855-1.16-.768-1.85-.768h-8.25c-.69 0-1.36-.276-1.85-.768s-.77-1.159-.77-1.855.28-1.363.77-1.855 1.16-.768 1.85-.768h6.37m0 0c0 1.242 1.01 2.248 2.25 2.248s2.25-1.006 2.25-2.248-1.01-2.248-2.25-2.248-2.25 1.006-2.25 2.248z" stroke="#9ca3af" stroke-linecap="round" stroke-linejoin="round" stroke-width=".75"/><path clip-rule="evenodd" d="m1282 431 39-79h-39z" fill="#fff" fill-rule="evenodd" opacity=".35"/><path clip-rule="evenodd" d="m381 268 42-80h-41.997z" fill="#fff" fill-rule="evenodd" opacity=".35"/><path clip-rule="evenodd" d="m1280.33 431 20.67-39.502-62-39.498z" fill="#fff" fill-rule="evenodd" opacity=".35"/><path clip-rule="evenodd" d="m379.999 268 20.001-40.002-60-39.998z" fill="#fff" fill-rule="evenodd" opacity=".35"/></g></svg>