<svg fill="none" height="558" viewBox="0 0 696 558" width="696" xmlns="http://www.w3.org/2000/svg" xmlns:xlink="http://www.w3.org/1999/xlink"><filter id="a" color-interpolation-filters="sRGB" filterUnits="userSpaceOnUse" height="558" width="696" x="0" y="0"><feFlood flood-opacity="0" result="BackgroundImageFix"/><feColorMatrix in="SourceAlpha" result="hardAlpha" type="matrix" values="0 0 0 0 0 0 0 0 0 0 0 0 0 0 0 0 0 0 127 0"/><feMorphology in="SourceAlpha" operator="erode" radius="1" result="effect1_dropShadow_189_5987"/><feOffset dy="1"/><feGaussianBlur stdDeviation="1"/><feComposite in2="hardAlpha" operator="out"/><feColorMatrix type="matrix" values="0 0 0 0 0 0 0 0 0 0 0 0 0 0 0 0 0 0 0.1 0"/><feBlend in2="BackgroundImageFix" mode="normal" result="effect1_dropShadow_189_5987"/><feColorMatrix in="SourceAlpha" result="hardAlpha" type="matrix" values="0 0 0 0 0 0 0 0 0 0 0 0 0 0 0 0 0 0 127 0"/><feOffset dy="1"/><feGaussianBlur stdDeviation="1.5"/><feComposite in2="hardAlpha" operator="out"/><feColorMatrix type="matrix" values="0 0 0 0 0 0 0 0 0 0 0 0 0 0 0 0 0 0 0.1 0"/><feBlend in2="effect1_dropShadow_189_5987" mode="normal" result="effect2_dropShadow_189_5987"/><feBlend in="SourceGraphic" in2="effect2_dropShadow_189_5987" mode="normal" result="shape"/></filter><filter id="b" color-interpolation-filters="sRGB" filterUnits="userSpaceOnUse" height="1308" width="1308" x="-638" y="-98"><feFlood flood-opacity="0" result="BackgroundImageFix"/><feBlend in="SourceGraphic" in2="BackgroundImageFix" mode="normal" result="shape"/><feGaussianBlur result="effect1_foregroundBlur_189_5987" stdDeviation="150"/></filter><filter id="c" color-interpolation-filters="sRGB" filterUnits="userSpaceOnUse" height="1202" width="1202" x="128" y="-545"><feFlood flood-opacity="0" result="BackgroundImageFix"/><feBlend in="SourceGraphic" in2="BackgroundImageFix" mode="normal" result="shape"/><feGaussianBlur result="effect1_foregroundBlur_189_5987" stdDeviation="150"/></filter><clipPath id="d"><path d="m3 14c0-6.62742 5.37258-12 12-12h666c6.627 0 12 5.37258 12 12v528c0 6.627-5.373 12-12 12h-666c-6.6274 0-12-5.373-12-12z"/></clipPath><g filter="url(#a)"><g clip-path="url(#d)"><path d="m3 14c0-6.62742 5.37258-12 12-12h666c6.627 0 12 5.37258 12 12v528c0 6.627-5.373 12-12 12h-666c-6.6274 0-12-5.373-12-12z" fill="#fff"/><g filter="url(#b)"><circle cx="16" cy="556" fill="#f43f5e" fill-opacity=".4" r="354"/></g><g filter="url(#c)"><circle cx="729" cy="56" fill="#38bdf8" fill-opacity=".4" r="301"/></g></g><path d="m3.5 14c0-6.35128 5.14872-11.5 11.5-11.5h666c6.351 0 11.5 5.14873 11.5 11.5v528c0 6.351-5.149 11.5-11.5 11.5h-666c-6.35126 0-11.5-5.149-11.5-11.5z" stroke="#e2e8f0"/></g></svg>