<svg fill="none" height="43" viewBox="0 0 140 43" width="140" xmlns="http://www.w3.org/2000/svg"><path d="m53.0322 12.7 6.42 17.19 6.39-17.19h3.57l-8.37 21.3h-3.18l-8.4-21.3zm23.9338 21.6c-1.22 0-2.33-.21-3.33-.63-.98-.44-1.83-1.03-2.55-1.77-.72-.76-1.28-1.62-1.68-2.58-.38-.98-.57-2.02-.57-3.12 0-1.48.34-2.83 1.02-4.05.68-1.24 1.63-2.23 2.85-2.97 1.22-.76 2.65-1.14 4.29-1.14s3.05.38 4.23 1.14c1.2.74 2.13 1.72 2.79 2.94s.99 2.53.99 3.93c0 .24-.01.47-.03.69-.02.2-.04.37-.06.51h-12.57c.06.92.31 1.73.75 2.43.46.68 1.04 1.22 1.74 1.62.7.38 1.45.57 2.25.57.88 0 1.71-.22 2.49-.66.8-.44 1.34-1.02 1.62-1.74l2.82.81c-.34.76-.86 1.45-1.56 2.07-.68.6-1.49 1.08-2.43 1.44-.94.34-1.96.51-3.06.51zm-4.71-9.24h9.48c-.06-.9-.32-1.69-.78-2.37-.44-.7-1.01-1.24-1.71-1.62-.68-.4-1.44-.6-2.28-.6-.82 0-1.58.2-2.28.6-.68.38-1.24.92-1.68 1.62-.44.68-.69 1.47-.75 2.37zm22.8643 9.24c-1.22 0-2.33-.21-3.33-.63-.98-.44-1.83-1.03-2.55-1.77-.72-.76-1.28-1.62-1.68-2.58-.38-.98-.57-2.02-.57-3.12 0-1.48.34-2.83 1.02-4.05.68-1.24 1.63-2.23 2.85-2.97 1.22-.76 2.65-1.14 4.29-1.14s3.05.38 4.23 1.14c1.1997.74 2.1297 1.72 2.7897 2.94s.99 2.53.99 3.93c0 .24-.01.47-.03.69-.02.2-.04.37-.06.51h-12.5697c.06.92.31 1.73.75 2.43.46.68 1.04 1.22 1.74 1.62.7.38 1.45.57 2.25.57.88 0 1.71-.22 2.49-.66.8-.44 1.34-1.02 1.62-1.74l2.8197.81c-.34.76-.86 1.45-1.56 2.07-.6797.6-1.4897 1.08-2.4297 1.44-.94.34-1.96.51-3.06.51zm-4.71-9.24h9.48c-.06-.9-.32-1.69-.78-2.37-.44-.7-1.01-1.24-1.71-1.62-.68-.4-1.44-.6-2.28-.6-.82 0-1.58.2-2.28.6-.68.38-1.24.92-1.68 1.62-.44.68-.69 1.47-.75 2.37zm24.5747-3.9c-1.28.02-2.42.31-3.42.87-.98.56-1.68 1.35-2.1 2.37v9.6h-3.3v-15.69h3.06v3.51c.54-1.08 1.25-1.94 2.13-2.58.88-.66 1.81-1.02 2.79-1.08h.48c.14 0 .26.01.36.03z" fill="#000"/><g clip-rule="evenodd" fill-rule="evenodd"><path d="m22.1875 42.1875 21.8751-42.1875h-21.8735z" fill="#f43f5e"/><path d="m22.0828 42.1875 11.0422-21.0947-33.125-21.0928z" fill="#38bdf8"/><path d="m22.1875 42.1875 10.9375-21.0951-10.9359-7.0299z" fill="#2e1065"/></g></svg>