<svg width="328" height="183" viewBox="0 0 328 183" fill="none" xmlns="http://www.w3.org/2000/svg">
<g clip-path="url(#clip0_37_995)">
<path d="M45.9352 48.38L66.3092 111.576L86.4392 48.38H107.545L76.0692 135H56.4272L24.7072 48.38H45.9352ZM137.153 136.22C131.704 136.22 126.865 135.366 122.635 133.658C118.406 131.869 114.787 129.469 111.777 126.46C108.849 123.451 106.613 119.994 105.067 116.09C103.522 112.105 102.749 107.957 102.749 103.646C102.749 97.4647 104.091 91.8527 106.775 86.81C109.541 81.686 113.485 77.5787 118.609 74.488C123.733 71.316 129.915 69.73 137.153 69.73C144.392 69.73 150.533 71.2753 155.575 74.366C160.699 77.4567 164.603 81.5233 167.287 86.566C169.971 91.5273 171.313 96.936 171.313 102.792C171.313 103.931 171.232 105.069 171.069 106.208C170.988 107.265 170.907 108.201 170.825 109.014H123.489C123.733 111.861 124.506 114.26 125.807 116.212C127.19 118.164 128.939 119.669 131.053 120.726C133.168 121.702 135.405 122.19 137.763 122.19C140.691 122.19 143.416 121.499 145.937 120.116C148.54 118.733 150.329 116.863 151.305 114.504L167.897 119.14C166.271 122.475 163.953 125.443 160.943 128.046C158.015 130.567 154.518 132.56 150.451 134.024C146.466 135.488 142.033 136.22 137.153 136.22ZM123.001 97.058H150.817C150.492 94.374 149.719 92.056 148.499 90.104C147.279 88.0707 145.653 86.5253 143.619 85.468C141.586 84.3293 139.349 83.76 136.909 83.76C134.388 83.76 132.111 84.3293 130.077 85.468C128.125 86.5253 126.539 88.0707 125.319 90.104C124.099 92.056 123.327 94.374 123.001 97.058ZM211.782 136.22C206.333 136.22 201.494 135.366 197.264 133.658C193.035 131.869 189.416 129.469 186.406 126.46C183.478 123.451 181.242 119.994 179.696 116.09C178.151 112.105 177.378 107.957 177.378 103.646C177.378 97.4647 178.72 91.8527 181.404 86.81C184.17 81.686 188.114 77.5787 193.238 74.488C198.362 71.316 204.544 69.73 211.782 69.73C219.021 69.73 225.162 71.2753 230.204 74.366C235.328 77.4567 239.232 81.5233 241.916 86.566C244.6 91.5273 245.942 96.936 245.942 102.792C245.942 103.931 245.861 105.069 245.698 106.208C245.617 107.265 245.536 108.201 245.454 109.014H198.118C198.362 111.861 199.135 114.26 200.436 116.212C201.819 118.164 203.568 119.669 205.682 120.726C207.797 121.702 210.034 122.19 212.392 122.19C215.32 122.19 218.045 121.499 220.566 120.116C223.169 118.733 224.958 116.863 225.934 114.504L242.526 119.14C240.9 122.475 238.582 125.443 235.572 128.046C232.644 130.567 229.147 132.56 225.08 134.024C221.095 135.488 216.662 136.22 211.782 136.22ZM197.63 97.058H225.446C225.121 94.374 224.348 92.056 223.128 90.104C221.908 88.0707 220.282 86.5253 218.248 85.468C216.215 84.3293 213.978 83.76 211.538 83.76C209.017 83.76 206.74 84.3293 204.706 85.468C202.754 86.5253 201.168 88.0707 199.948 90.104C198.728 92.056 197.956 94.374 197.63 97.058ZM296.415 87.664C291.698 87.664 287.428 88.4367 283.605 89.982C279.782 91.446 277.017 93.642 275.309 96.57V135H255.789V70.95H273.723V83.882C275.919 79.5713 278.766 76.196 282.263 73.756C285.76 71.316 289.42 70.0553 293.243 69.974C294.138 69.974 294.788 69.974 295.195 69.974C295.683 69.974 296.09 70.0147 296.415 70.096V87.664Z" fill="url(#paint0_linear_37_995)"/>
</g>
<defs>
<linearGradient id="paint0_linear_37_995" x1="-57.5" y1="92" x2="371.5" y2="92" gradientUnits="userSpaceOnUse">
<stop offset="0.167796" stop-color="#01B2FE"/>
<stop offset="0.541075" stop-color="#00005A" stop-opacity="0.78"/>
<stop offset="0.837784" stop-color="#FF015B"/>
</linearGradient>
<clipPath id="clip0_37_995">
<rect width="328" height="183" fill="white"/>
</clipPath>
</defs>
</svg>
