<svg width="494" height="183" viewBox="0 0 494 183" fill="none" xmlns="http://www.w3.org/2000/svg">
<path d="M205.516 62.84L226.06 117.464L246.508 62.84H257.932L230.668 131H221.452L194.092 62.84H205.516ZM282.479 131.96C278.575 131.96 275.023 131.288 271.823 129.944C268.623 128.536 265.871 126.648 263.567 124.28C261.327 121.912 259.567 119.16 258.287 116.024C257.071 112.888 256.463 109.56 256.463 106.04C256.463 102.52 257.071 99.192 258.287 96.056C259.567 92.856 261.327 90.072 263.567 87.704C265.871 85.272 268.623 83.384 271.823 82.04C275.023 80.632 278.607 79.928 282.575 79.928C286.479 79.928 289.999 80.632 293.135 82.04C296.335 83.448 299.055 85.336 301.295 87.704C303.535 90.008 305.231 92.728 306.383 95.864C307.599 98.936 308.207 102.168 308.207 105.56C308.207 106.328 308.175 107.064 308.111 107.768C308.047 108.408 307.983 108.952 307.919 109.4H267.695C267.887 111.64 268.399 113.656 269.231 115.448C270.127 117.24 271.247 118.808 272.591 120.152C273.999 121.432 275.567 122.424 277.295 123.128C279.087 123.832 280.943 124.184 282.863 124.184C284.271 124.184 285.647 124.024 286.991 123.704C288.399 123.32 289.679 122.808 290.831 122.168C291.983 121.464 293.007 120.632 293.903 119.672C294.799 118.712 295.503 117.656 296.015 116.504L305.039 119.096C303.311 122.872 300.431 125.976 296.399 128.408C292.431 130.776 287.791 131.96 282.479 131.96ZM297.743 102.104C297.551 99.992 297.007 98.04 296.111 96.248C295.279 94.456 294.191 92.952 292.847 91.736C291.503 90.456 289.935 89.464 288.143 88.76C286.351 88.056 284.463 87.704 282.479 87.704C280.495 87.704 278.607 88.056 276.815 88.76C275.087 89.464 273.551 90.456 272.207 91.736C270.863 92.952 269.775 94.456 268.943 96.248C268.111 98.04 267.599 99.992 267.407 102.104H297.743ZM340.572 131.96C336.668 131.96 333.116 131.288 329.916 129.944C326.716 128.536 323.964 126.648 321.66 124.28C319.42 121.912 317.66 119.16 316.38 116.024C315.164 112.888 314.556 109.56 314.556 106.04C314.556 102.52 315.164 99.192 316.38 96.056C317.66 92.856 319.42 90.072 321.66 87.704C323.964 85.272 326.716 83.384 329.916 82.04C333.116 80.632 336.7 79.928 340.668 79.928C344.572 79.928 348.092 80.632 351.228 82.04C354.428 83.448 357.148 85.336 359.388 87.704C361.628 90.008 363.324 92.728 364.476 95.864C365.692 98.936 366.3 102.168 366.3 105.56C366.3 106.328 366.268 107.064 366.204 107.768C366.14 108.408 366.076 108.952 366.012 109.4H325.788C325.98 111.64 326.492 113.656 327.324 115.448C328.22 117.24 329.34 118.808 330.684 120.152C332.092 121.432 333.66 122.424 335.388 123.128C337.18 123.832 339.036 124.184 340.956 124.184C342.364 124.184 343.74 124.024 345.084 123.704C346.492 123.32 347.772 122.808 348.924 122.168C350.076 121.464 351.1 120.632 351.996 119.672C352.892 118.712 353.596 117.656 354.108 116.504L363.132 119.096C361.404 122.872 358.524 125.976 354.492 128.408C350.524 130.776 345.884 131.96 340.572 131.96ZM355.836 102.104C355.644 99.992 355.1 98.04 354.204 96.248C353.372 94.456 352.284 92.952 350.94 91.736C349.596 90.456 348.028 89.464 346.236 88.76C344.444 88.056 342.556 87.704 340.572 87.704C338.588 87.704 336.7 88.056 334.908 88.76C333.18 89.464 331.644 90.456 330.3 91.736C328.956 92.952 327.868 94.456 327.036 96.248C326.204 98.04 325.692 99.992 325.5 102.104H355.836ZM404.138 89.912C400.042 90.04 396.394 91 393.194 92.792C390.058 94.52 387.818 97.016 386.474 100.28V131H375.914V80.792H385.706V92.024C387.434 88.568 389.674 85.816 392.426 83.768C395.242 81.656 398.25 80.504 401.45 80.312C402.09 80.312 402.602 80.312 402.986 80.312C403.434 80.312 403.818 80.344 404.138 80.408V89.912Z" fill="#1E1B4B"/>
<path fill-rule="evenodd" clip-rule="evenodd" d="M107 157L177 22H107.005L107 157Z" fill="#FF0057"/>
<path fill-rule="evenodd" clip-rule="evenodd" d="M106.665 157L142 89.4971L36 22L106.665 157Z" fill="#00B5FF"/>
<path fill-rule="evenodd" clip-rule="evenodd" d="M107 157L142 89.4956L107.005 67L107 157Z" fill="#1E1B4B"/>
</svg>
